<svg width="21" height="21" xmlns="http://www.w3.org/2000/svg">
  <path stroke="null" d="m4.5,17c1.1,0 2,-0.9 2,-2c0,-0.5 -0.2,-1 -0.5,-1.3l1.3,-2.7l0.2,0c0.5,0 1,-0.2 1.3,-0.5l2.7,1.4l0,0.1c0,1.1 0.9,2 2,2s2,-0.9 2,-2c0,-0.5 -0.2,-0.9 -0.5,-1.3l1.3,-2.7l0.2,0c1.1,0 2,-0.9 2,-2s-0.9,-2 -2,-2s-2,0.9 -2,2c0,0.5 0.2,1 0.5,1.3l-1.3,2.7l-0.2,0c-0.5,0 -1,0.2 -1.3,0.5l-2.7,-1.3l0,-0.2c0,-1.1 -0.9,-2 -2,-2s-2,0.9 -2,2c0,0.5 0.2,1 0.5,1.3l-1.3,2.7l-0.2,0c-1.1,0 -2,0.9 -2,2s0.9,2 2,2z" fill="#fff"/>
</svg>